<?xml version="1.0" encoding="utf-8"?>
<!-- Generator: Adobe Illustrator 16.0.0, SVG Export Plug-In . SVG Version: 6.00 Build 0)  -->
<!DOCTYPE svg PUBLIC "-//W3C//DTD SVG 1.1//EN" "http://www.w3.org/Graphics/SVG/1.1/DTD/svg11.dtd">
<svg version="1.1" id="Layer_1" xmlns="http://www.w3.org/2000/svg" xmlns:xlink="http://www.w3.org/1999/xlink" x="0px" y="0px"
	 width="58px" height="35.97px" viewBox="0 0 58 35.97" enable-background="new 0 0 58 35.97" xml:space="preserve">
<g>
	<g>
		<defs>
			<rect id="SVGID_1_" width="58" height="35.97"/>
		</defs>
		<clipPath id="SVGID_2_">
			<use xlink:href="#SVGID_1_"  overflow="visible"/>
		</clipPath>
		<path clip-path="url(#SVGID_2_)" fill="#68CAF6" d="M2.662,15.439c-1.383,0-2.504,1.121-2.504,2.504s1.121,2.504,2.504,2.504
			h46.789L38.287,31.613c-0.979,0.978-0.979,2.563,0,3.541c0.488,0.488,1.13,0.732,1.77,0.732c0.641,0,1.282-0.244,1.771-0.732
			l15.438-15.441c0.979-0.977,0.979-2.563,0-3.54L41.828,0.734c-0.977-0.978-2.563-0.978-3.541,0c-0.979,0.977-0.979,2.563,0,3.54
			l11.164,11.166H2.662L2.662,15.439z M2.662,15.439"/>
	</g>
</g>
</svg>
